# xmcd
#
# Track frame offsets: 
#        150
#        12250
#        29000
#        41275
#        52962
#        61537
#        72925
#        86412
#        98550
#        108450
#        118350
#        129150
#        141575
#        154612
#        169300
#        181150
#        195412
#        208387
#
# Disc length: 2925 seconds
#
# Revision: 0
# Processed by: cddbd v1.5.2PL0 Copyright (c) Steve Scherf et al.
# Submitted via: ExactAudioCopyFreeDBPlugin 1.0
#
DISCID=f40b6b12
DTITLE=Various Artist - Old Style Love Songs (I)
DYEAR=1900
DGENRE=Other
TTITLE0=Just Walking In The Rain
TTITLE1=Yesterday When I Was Young
TTITLE2=Never On Sunday
TTITLE3=Rose Rose I Love You
TTITLE4=A Dear John Letter
TTITLE5=I Love How You Love Me
TTITLE6=My Special Angel
TTITLE7=The Lion Sleeps Tonight
TTITLE8=Shimmy Shimmy Ko-Ko-Bop
TTITLE9=Patsy Cline - Seven Lonely Days
TTITLE10=Itsy Bitsy Teenie Weenie Yellow Polka Dot Bikini
TTITLE11=Sunny
TTITLE12=Cachito
TTITLE13=Happy Valley P.T.A.
TTITLE14=Be-Bop-A-Lula
TTITLE15=The Mansion You Stole
TTITLE16=The Green Leaves of Summer
TTITLE17=Happiest Girl in the Whole U.S.A.
EXTD=
EXTT0=
EXTT1=
EXTT2=
EXTT3=
EXTT4=
EXTT5=
EXTT6=
EXTT7=
EXTT8=
EXTT9=
EXTT10=
EXTT11=
EXTT12=
EXTT13=
EXTT14=
EXTT15=
EXTT16=
EXTT17=
PLAYORDER=
